<?xml version="1.0" encoding="UTF-8" standalone="no"?>
<!-- Created with Inkscape (http://www.inkscape.org/) -->

<svg
   xmlns:svg="http://www.w3.org/2000/svg"
   xmlns="http://www.w3.org/2000/svg"
   version="1.1"
   width="250"
   height="298"
   id="svg2">
  <defs
     id="defs6" />
  <g
     transform="matrix(1,0,0,0.88796148,-241.84923,-88.355641)"
     id="g3629">
    <path
       d="m 259.41737,112.69068 14.58687,37.46822 C 365.72034,117.64831 404.23729,125.75212 457.3411,136.7161 403.95127,110.11652 371.15466,98.389831 259.41737,112.69068 z"
       id="path2818"
       style="fill:#fb0000;fill-opacity:1;stroke:#000000;stroke-width:3;stroke-linecap:butt;stroke-linejoin:miter;stroke-miterlimit:4;stroke-opacity:0.49803922;stroke-dasharray:none" />
    <path
       d="m 347.51059,427.88136 15.73094,-44.33263 C 324.34322,333.68644 286.58898,274.09957 248.26271,153.30508 c 17.63771,128.1356 58.15678,196.20763 99.24788,274.57628 z"
       id="path3592"
       style="fill:#fb0000;fill-opacity:1;stroke:#000000;stroke-width:3;stroke-linecap:butt;stroke-linejoin:miter;stroke-miterlimit:4;stroke-opacity:0.49803922;stroke-dasharray:none" />
    <path
       d="m 449.61864,157.0233 34.89407,-0.28601 c -26.13972,115.0671 -57.13331,184.02244 -107.54237,250.55085 32.30588,-63.19716 62.18483,-133.67512 72.6483,-250.26484 z"
       id="path3615"
       style="fill:#fb0000;fill-opacity:1;stroke:#000000;stroke-width:3;stroke-linecap:butt;stroke-linejoin:miter;stroke-miterlimit:4;stroke-opacity:0.49803922;stroke-dasharray:none" />
    <path
       d="m 364.84912,378.60887 80.89781,-221.66 -168.67193,0 87.77412,221.66 z"
       id="path3617"
       style="fill:#fb0000;fill-opacity:1;stroke:#000000;stroke-width:1.5;stroke-linecap:butt;stroke-linejoin:miter;stroke-miterlimit:4;stroke-opacity:0.49803922;stroke-dasharray:none" />
    <path
       d="m 337.42764,158.92224 -10.80273,18.69028 -1.8202,-12.57387 -23.54414,45.43562 21.31945,-30.67177 3.23591,9.50549 11.61171,-30.38575 z"
       id="path3619"
       style="fill:#000000;fill-opacity:1;stroke:none" />
    <path
       d="m 386.81,159.815 11.81396,29.69524 2.83142,-10.92121 22.29597,32.77799 -23.50944,-45.31715 -2.22469,11.73019 L 386.81,159.815 z"
       id="path3621"
       style="fill:#000000;fill-opacity:1;stroke:none" />
    <path
       d="m 358.80826,180.90572 3.00318,-12.44174 3.2892,12.44174 11.72669,0.14301 -9.58156,6.57838 3.4322,11.5837 -8.58051,-7.43645 -8.15148,7.29344 2.57415,-11.29767 -8.58051,-6.7214 10.86864,-0.14301 z"
       id="path3623"
       style="fill:#000000;fill-opacity:1;stroke:none" />
    <path
       d="m 332.63771,182.47881 -4.29025,9.43856 14.87288,29.74577 -17.16102,-19.16314 0,14.58686 16.01695,14.87289 -13.72881,-4.57628 4.00424,12.87077 9.72457,0.28601 -7.15042,5.72034 10.01059,8.00848 -3.14619,3.71822 5.72034,8.00847 -5.72034,2.57415 -0.28601,7.72246 -1.14407,2.57416 2.57415,0.85805 c -3.21752,4.17419 -4.81709,9.35961 -4.79871,11.91585 l 3.4291,5.44485 -0.3418,7.50955 0.77252,2.0686 1.46287,-2.43182 -0.0169,6.61884 2.01734,4.33035 6.30722,5.45878 2.63816,0.36139 -0.41923,-3.95196 -1.64234,-2.18562 0.16485,-7.6406 -1.52402,-2.91092 -5.18999,0.35017 3.13946,-4.05782 4.08284,1.45789 -1.57739,-2.97206 2.33594,-3.7535 c 6.07958,-1.88257 2.24917,-4.57412 1.45243,-5.24322 0.2529,-1.25209 2.12375,-2.50418 0.96095,-3.35178 -1.62387,0.21228 -3.85447,1.23353 -4.87161,0.63683 -0.3691,-3.50244 0.87975,-6.39816 3.74657,-5.65347 l 4.85124,5.19015 1.28323,-2.81399 0.14667,-4.79359 -4.23891,-2.66527 c 1.17629,-2.72328 2.95931,-4.03085 5.34907,-3.31598 8.40486,2.41037 8.94725,5.83196 13.98284,5.41091 l 0.01,2.98796 -5.81225,0.0716 0.0616,4.15347 -3.66563,-0.67049 0.0644,2.37593 1.14731,1.19839 -0.29983,1.82522 -1.89517,-1.49802 -1.58724,0.0958 -0.28213,2.87817 1.27654,0.28675 0.24427,1.21573 -3.47887,2.80092 0.20653,2.59958 1.97664,0.24407 0.81241,-1.44869 4.08969,-1.24374 0.17009,1.50621 -6.06857,3.78125 -0.0568,4.78381 1.34852,-0.10366 1.12428,3.8686 5.75992,-0.43923 0.40078,8.3706 2.04738,0.28931 2.20345,-1.69353 0.37617,-9.85409 -0.98445,-4.9224 1.41652,1.08166 2.39928,-1.08143 1.95005,2.98728 3.74968,0.56362 -0.23067,5.83875 c -1.13039,3.715 -4.58659,9.55357 -11.88545,12.0551 -5.08965,-1.10567 -9.87594,-1.50348 -13.44877,-0.48558 -1.98038,1.04699 -4.46639,1.38612 -6.1434,-0.29718 l -2.35571,-0.1453 c -4.73414,-1.97841 -14.42327,-14.57467 -11.77549,-30.20459 l -0.97998,-1.34387 c -1.80548,4.53561 -2.39538,34.66975 24.25783,36.55971 31.03321,-0.88208 31.74268,-39.43462 20.96907,-49.71635 l 4.29025,-6.00635 -5.43432,-1.43009 0.57204,-3.71822 -5.72034,-4.00423 5.1483,-4.29026 -0.57203,-6.57839 8.29449,-6.57839 -6.00636,-6.00635 9.15255,-2.28814 0.85805,-11.15466 -9.72458,2.00212 13.72881,-13.4428 -0.28601,-12.58474 -16.01695,18.01906 14.58686,-28.88771 -4.86229,-8.29449 -21.45127,45.19068 2.57416,6.00635 -1.71611,1.71611 -4.00423,-6.29238 -0.57204,-14.01483 4.00424,-2.28813 2.86017,0.28601 -4.86229,-6.00635 -8.00847,-0.28602 -1.71611,6.00636 -0.57203,16.58898 -3.4322,5.43432 -2.28814,-1.14407 0,-2.86017 3.14619,-3.14618 0.28602,-2.86017 -23.16738,-42.61653 5e-5,0 -4e-5,0 0,10e-6 5e-5,3e-5 -7e-5,-5e-5 2e-5,0 z"
       id="path3625"
       style="fill:#000000;fill-opacity:1;stroke:none" />
  </g>
  <rect
     width="250"
     height="298"
     x="0"
     y="0"
     id="rect3639"
     style="fill:none;stroke:none" />
</svg>
